<svg width="32" height="32" viewBox="0 0 32 32" fill="none" xmlns="http://www.w3.org/2000/svg">
<path d="M6.16146 2H9.5C10.0523 2 10.5 2.44772 10.5 3C10.5 3.55229 10.0523 4 9.5 4H6.2C5.62345 4 5.25118 4.00078 4.96784 4.02393C4.69618 4.04613 4.59546 4.0838 4.54601 4.109C4.35785 4.20487 4.20487 4.35785 4.109 4.54601C4.0838 4.59546 4.04613 4.69618 4.02393 4.96784C4.00078 5.25118 4 5.62345 4 6.2V9.93334C4 10.4856 3.55229 10.9333 3 10.9333C2.44772 10.9333 2 10.4856 2 9.93334V6.16146C1.99998 5.63433 1.99997 5.17954 2.03057 4.80497C2.06287 4.40963 2.13419 4.01641 2.32698 3.63803C2.6146 3.07354 3.07354 2.6146 3.63803 2.32698C4.01641 2.13419 4.40963 2.06287 4.80497 2.03057C5.17954 1.99997 5.63433 1.99998 6.16146 2Z" fill="#242729"/>
<path d="M27.0322 4.02393C26.7488 4.00078 26.3766 4 25.8 4H22.5C21.9477 4 21.5 3.55229 21.5 3C21.5 2.44772 21.9477 2 22.5 2H25.8385C26.3657 1.99998 26.8205 1.99997 27.195 2.03057C27.5904 2.06287 27.9836 2.13419 28.362 2.32698C28.9265 2.6146 29.3854 3.07354 29.673 3.63803C29.8658 4.01641 29.9371 4.40963 29.9694 4.80497C30 5.17954 30 5.6343 30 6.16144V9.93334C30 10.4856 29.5523 10.9333 29 10.9333C28.4477 10.9333 28 10.4856 28 9.93334V6.2C28 5.62345 27.9992 5.25118 27.9761 4.96784C27.9539 4.69618 27.9162 4.59546 27.891 4.54601C27.7951 4.35785 27.6422 4.20487 27.454 4.109C27.4045 4.0838 27.3038 4.04613 27.0322 4.02393Z" fill="#242729"/>
<path d="M3 21.0667C3.55229 21.0667 4 21.5144 4 22.0667V25.8C4 26.3766 4.00078 26.7488 4.02393 27.0322C4.04613 27.3038 4.0838 27.4045 4.109 27.454C4.20487 27.6422 4.35785 27.7951 4.54601 27.891C4.59546 27.9162 4.69618 27.9539 4.96784 27.9761C5.25118 27.9992 5.62345 28 6.2 28H9.5C10.0523 28 10.5 28.4477 10.5 29C10.5 29.5523 10.0523 30 9.5 30H6.16144C5.6343 30 5.17954 30 4.80497 29.9694C4.40963 29.9371 4.01641 29.8658 3.63803 29.673C3.07354 29.3854 2.6146 28.9265 2.32698 28.362C2.13419 27.9836 2.06287 27.5904 2.03057 27.195C1.99997 26.8205 1.99998 26.3657 2 25.8386V22.0667C2 21.5144 2.44772 21.0667 3 21.0667Z" fill="#242729"/>
<path d="M29 21.0667C29.5523 21.0667 30 21.5144 30 22.0667V25.8386C30 26.3657 30 26.8205 29.9694 27.195C29.9371 27.5904 29.8658 27.9836 29.673 28.362C29.3854 28.9265 28.9265 29.3854 28.362 29.673C27.9836 29.8658 27.5904 29.9371 27.195 29.9694C26.8205 30 26.3657 30 25.8386 30H22.5C21.9477 30 21.5 29.5523 21.5 29C21.5 28.4477 21.9477 28 22.5 28H25.8C26.3766 28 26.7488 27.9992 27.0322 27.9761C27.3038 27.9539 27.4045 27.9162 27.454 27.891C27.6422 27.7951 27.7951 27.6422 27.891 27.454C27.9162 27.4045 27.9539 27.3038 27.9761 27.0322C27.9992 26.7488 28 26.3766 28 25.8V22.0667C28 21.5144 28.4477 21.0667 29 21.0667Z" fill="#242729"/>
<path d="M11 9C11.5523 9 12 9.44772 12 10V12C12 12.5523 11.5523 13 11 13C10.4477 13 10 12.5523 10 12V10C10 9.44772 10.4477 9 11 9Z" fill="#242729"/>
<path d="M22 10C22 9.44772 21.5523 9 21 9C20.4477 9 20 9.44772 20 10V12C20 12.5523 20.4477 13 21 13C21.5523 13 22 12.5523 22 12V10Z" fill="#242729"/>
<path d="M16 8C16.5523 8 17 8.44772 17 9V14.7337C17 15.6395 16.6563 16.5743 15.9021 17.223C15.1316 17.8857 14.0606 18.1415 12.8263 17.9237C12.2824 17.8278 11.9193 17.3091 12.0152 16.7652C12.1112 16.2213 12.6299 15.8582 13.1737 15.9542C13.9394 16.0893 14.3684 15.904 14.5979 15.7067C14.8437 15.4953 15 15.151 15 14.7337V9C15 8.44772 15.4477 8 16 8Z" fill="#242729"/>
<path d="M11.4343 20.0992C10.9368 19.8594 10.3391 20.0682 10.0992 20.5657C9.85938 21.0632 10.0682 21.6609 10.5657 21.9008C11.4577 22.3308 12.9664 22.8167 14.7146 22.9589C16.4684 23.1015 18.5301 22.903 20.4655 21.8851C20.9543 21.628 21.1421 21.0233 20.8851 20.5345C20.628 20.0457 20.0233 19.8579 19.5345 20.115C18.0264 20.9081 16.3707 21.0869 14.8767 20.9654C13.3771 20.8435 12.1076 20.4238 11.4343 20.0992Z" fill="#242729"/>
</svg>
