<svg width="32" height="32" viewBox="0 0 32 32" fill="none" xmlns="http://www.w3.org/2000/svg">
<path d="M11.512 11.1618C11.3386 11.784 11.8707 12.3294 12.5166 12.3294C13.1147 12.3294 13.5779 11.8443 13.8357 11.3046C14.2292 10.4811 15.0415 9.99653 16.1399 9.99653C17.6264 9.99653 18.5921 10.8971 18.5921 12.1233C18.5921 13.2409 18.1255 13.8702 16.8126 14.6623C15.3261 15.5521 14.6642 16.5286 14.7184 18.0586C14.7244 18.5398 15.1162 18.9266 15.5974 18.9266H16.3135C16.679 18.9266 16.9754 18.6303 16.9754 18.2648C16.9754 17.1471 17.3768 16.572 18.7766 15.7474C20.2089 14.8902 21.0552 13.7075 21.0552 12.0256C21.0552 9.70356 19.1238 8 16.2592 8C13.6348 8 12.0293 9.30573 11.512 11.1618Z" fill="#242729"/>
<path d="M15.7885 20.9C15.1506 20.9 14.6334 21.4171 14.6334 22.0551C14.6334 22.693 15.1506 23.2102 15.7885 23.2102C16.4265 23.2102 16.9436 22.693 16.9436 22.0551C16.9436 21.4171 16.4265 20.9 15.7885 20.9Z" fill="#242729"/>
<path fill-rule="evenodd" clip-rule="evenodd" d="M30 16C30 23.732 23.732 30 16 30C8.26801 30 2 23.732 2 16C2 8.26801 8.26801 2 16 2C23.732 2 30 8.26801 30 16ZM16 28C22.6274 28 28 22.6274 28 16C28 9.37258 22.6274 4 16 4C9.37258 4 4 9.37258 4 16C4 22.6274 9.37258 28 16 28Z" fill="#242729"/>
</svg>
